<svg width="43" height="43" viewBox="0 0 43 43" fill="none" xmlns="http://www.w3.org/2000/svg">
<path fill-rule="evenodd" clip-rule="evenodd" d="M8.95834 29.1146C9.31473 29.1146 9.65652 29.2561 9.90852 29.5081C10.1605 29.7601 10.3021 30.1019 10.3021 30.4583V34.0416C10.3021 34.2889 10.5028 34.4896 10.75 34.4896H32.25C32.3688 34.4896 32.4827 34.4424 32.5667 34.3584C32.6507 34.2744 32.6979 34.1604 32.6979 34.0416V30.4583C32.6979 30.1019 32.8395 29.7601 33.0915 29.5081C33.3435 29.2561 33.6853 29.1146 34.0417 29.1146C34.3981 29.1146 34.7399 29.2561 34.9919 29.5081C35.2439 29.7601 35.3854 30.1019 35.3854 30.4583V34.0416C35.3854 34.8732 35.0551 35.6707 34.4671 36.2587C33.8791 36.8467 33.0816 37.1771 32.25 37.1771H10.75C9.91845 37.1771 9.12094 36.8467 8.53294 36.2587C7.94493 35.6707 7.61459 34.8732 7.61459 34.0416V30.4583C7.61459 30.1019 7.75617 29.7601 8.00817 29.5081C8.26017 29.2561 8.60196 29.1146 8.95834 29.1146Z" fill="#FFFBFC"/>
<path d="M19.2389 6.71875C18.7943 6.71887 18.3659 6.88563 18.0382 7.18614C17.7105 7.48664 17.5073 7.89905 17.4688 8.342C17.193 11.4817 17.1439 14.6373 17.3218 17.7841C16.8793 17.8074 16.4386 17.8378 15.996 17.8683L13.3264 18.0636C13.0913 18.0808 12.8647 18.1588 12.6688 18.2899C12.4728 18.421 12.3143 18.6007 12.2087 18.8114C12.103 19.0221 12.0539 19.2567 12.0661 19.4921C12.0783 19.7276 12.1514 19.9558 12.2783 20.1545C14.1808 23.1324 16.6324 25.7214 19.5023 27.7834L20.5719 28.552C20.8424 28.7462 21.167 28.8507 21.5 28.8507C21.833 28.8507 22.1576 28.7462 22.4281 28.552L23.4977 27.7834C26.3676 25.7214 28.8191 23.1324 30.7217 20.1545C30.8486 19.9558 30.9217 19.7276 30.9339 19.4921C30.9461 19.2567 30.897 19.0221 30.7914 18.8114C30.6857 18.6007 30.5272 18.421 30.3312 18.2899C30.1353 18.1588 29.9087 18.0808 29.6736 18.0636L27.004 17.8683C26.5623 17.8363 26.1204 17.8083 25.6782 17.7841C25.8567 14.6373 25.8082 11.4818 25.5331 8.342C25.4945 7.89874 25.2911 7.48608 24.963 7.18553C24.6349 6.88498 24.206 6.71842 23.7611 6.71875H19.2389Z" fill="#FFFBFC"/>
</svg>
