<svg width="26" height="30" viewBox="0 0 26 30" fill="none" xmlns="http://www.w3.org/2000/svg">
<path fill-rule="evenodd" clip-rule="evenodd" d="M13 0.833313H4.5C3.37283 0.833313 2.29183 1.28108 1.4948 2.07811C0.697767 2.87514 0.25 3.95614 0.25 5.08331V24.9166C0.25 26.0438 0.697767 27.1248 1.4948 27.9218C2.29183 28.7189 3.37283 29.1666 4.5 29.1666H21.5C22.6272 29.1666 23.7082 28.7189 24.5052 27.9218C25.3022 27.1248 25.75 26.0438 25.75 24.9166V13.5833H17.25C16.1228 13.5833 15.0418 13.1355 14.2448 12.3385C13.4478 11.5415 13 10.4605 13 9.33331V0.833313ZM25.75 10.75V10.5063C25.7494 9.37973 25.3015 8.29948 24.5047 7.50298L19.0817 2.07715C18.2847 1.28058 17.2039 0.833178 16.077 0.833313H15.8333V9.33331C15.8333 9.70904 15.9826 10.0694 16.2483 10.335C16.5139 10.6007 16.8743 10.75 17.25 10.75H25.75Z" fill="#FFFBFC"/>
</svg>
