
<svg width="396" height="85" viewBox="0 0 396 85" fill="none" xmlns="http://www.w3.org/2000/svg">
<path d="M66.3198 83.2614C64.6386 82.3433 63.9278 81.0733 63.9278 78.9877V77.3906L65.9317 73.0875L67.9355 68.7845L70.7479 65.3253L73.5602 61.8661L76.6337 59.5409C80.4954 56.6194 86.3504 53.6371 90.5231 52.4663L93.7331 51.5656L101.122 51.5561C105.186 51.5504 108.508 51.5446 108.504 51.5408C108.501 51.537 107.184 48.0182 105.578 43.7209C103.972 39.4236 101.171 31.938 99.354 27.0862C97.537 22.2344 95.8985 17.6388 95.7129 16.8737C95.5273 16.1087 95.199 15.373 94.9834 15.2389L94.5914 14.9951L94.2865 16.2177C93.8143 18.1108 85.5471 39.2465 84.6131 40.9485C82.1303 45.4725 78.3972 48.6464 73.609 50.3041L70.784 51.2822H67.2993H63.8146L57.7348 49.5142C54.3909 48.5418 47.4848 46.5239 42.3878 45.0301L33.1206 42.3141L32.5509 42.8915C32.2376 43.2091 28.4338 49.2532 24.0981 56.323C19.7624 63.3928 15.6795 69.9833 15.0249 70.9685C14.3704 71.9538 13.8348 73.0313 13.8348 73.3629V73.9659H33.3028H52.7707L54.0914 75.2949L55.412 76.6238V78.5433V80.4628L54.2033 81.8771L52.9947 83.2915L28.5307 83.4235L4.06668 83.5555L2.43866 82.5488L0.81064 81.542V78.7086V75.8751L6.39524 66.7292C9.46677 61.6989 14.4164 53.6228 17.3944 48.7823C20.3724 43.9418 22.71 39.8819 22.5892 39.7603C22.1622 39.3306 15.5557 39.6597 13.1921 40.2285L10.7962 40.805L9.2863 40.1756L7.77641 39.5463L7.04864 38.1301C6.64836 37.3511 6.32087 36.118 6.32087 35.3898V34.0658L7.73021 32.6476L9.13955 31.2294L12.1133 30.5734L15.0871 29.9175L20.0964 30.0308C22.8516 30.0931 25.8843 30.1934 26.8358 30.2535L28.5658 30.3626L31.2351 26.0779C34.6551 20.5882 40.3841 10.9345 40.3841 10.6613C40.3841 10.5459 32.1956 10.4513 22.1875 10.4513H3.99086L2.93881 9.31715C2.36019 8.69335 1.73181 7.55476 1.54242 6.78695L1.19808 5.39093L1.79192 3.94824L2.38576 2.50557L3.97762 1.65812L5.56947 0.810669L28.4467 0.968229L51.324 1.12579L52.616 2.63804L53.908 4.15029L53.9086 5.93775L53.9092 7.72522L51.5974 11.4827C40.0053 30.3235 38.1026 33.5419 38.4067 33.7939C38.53 33.896 44.6373 35.7177 51.9786 37.842L65.3263 41.7045H67.3983H69.4702L71.3258 40.9243C75.3354 39.2384 75.5521 38.8663 80.852 24.5657C83.0611 18.6049 85.8103 11.3461 86.9613 8.43498L89.0542 3.14212L90.1034 2.00793L91.1526 0.873731H94.7697H98.3868L99.5407 2.08024L100.695 3.28674L104.266 12.792C111.826 32.9156 118.064 49.3844 118.761 51.0629L119.488 52.8132L121.638 52.5078C129.814 51.3469 136.679 47.4085 141.219 41.2739L143.325 38.4279L143.45 22.8014C143.519 14.2067 143.575 6.31383 143.576 5.26155L143.576 3.34833L144.805 2.11104L146.035 0.873731H149.477H152.919L154.01 2.04226L155.1 3.21078L159.126 11.9979C161.34 16.8308 165.904 26.8463 169.268 34.2545C176.595 50.3895 174.766 50.3873 182.144 34.2697C185.539 26.8534 189.044 19.1976 189.934 17.2569C190.823 15.3162 192.675 11.3255 194.049 8.3887L196.547 3.04905L197.707 1.96164L198.867 0.874207L202.154 0.881828C205.737 0.889449 206.089 1.02567 207.348 2.87659L208.196 4.12295V42.3715V80.6201L206.492 82.334L204.789 84.0479H203.561H202.333L200.631 82.8937L198.928 81.7395L198.529 78.735L198.129 75.7305L198.278 48.6611C198.36 33.7729 198.304 21.7505 198.154 21.9447C198.004 22.1388 197.575 23.205 197.202 24.314C196.829 25.423 195.295 28.939 193.794 32.1273C192.293 35.3156 190.301 39.5523 189.368 41.5422C188.434 43.5321 186.001 48.6741 183.961 52.9689L180.252 60.7775L178.72 61.5749C177.877 62.0135 176.534 62.3723 175.734 62.3723H174.281L172.625 61.2381C170.66 59.8911 171.041 60.535 166.435 50.7784C155.918 28.5025 154.18 24.6831 153.853 23.1438C153.127 19.712 153.047 22.5919 153.081 50.9213L153.116 79.9171L152.545 81.1789L151.974 82.4407L150.355 83.318L148.736 84.1953L147.432 83.866C146.715 83.6848 145.556 83.0278 144.858 82.406L143.588 81.2754L143.457 67.2875C143.384 59.5941 143.291 53.2994 143.25 53.2992C143.209 53.299 141.969 54.1238 140.495 55.1322C135.556 58.511 127.302 61.8682 123.934 61.8682C122.722 61.8682 122.654 61.5888 126.056 70.6497L129.07 78.6751L128.522 80.3448L127.975 82.0146L126.556 83.0312L125.137 84.0479H123.875H122.613L121.17 82.8253L119.726 81.6028L116.088 71.7993L112.449 61.9958L110.22 61.6883C108.995 61.5192 105.572 61.2359 102.616 61.0587L97.2396 60.7364L93.7331 61.6122L90.2266 62.4879L86.9598 64.1963C80.9156 67.3572 76.2752 72.4672 73.8501 78.633L72.8108 81.2754L71.2686 82.6617L69.7263 84.0479L68.7056 84.0277C68.1441 84.0163 67.0705 83.6714 66.3198 83.2614ZM229.722 83.2174C229.041 82.761 228.201 82.0371 227.857 81.6088L227.231 80.8301V42.0891V3.34809L228.46 2.11079L229.69 0.873483H232.941H236.192L237.476 2.00769L238.761 3.14187L245.509 17.8957C249.22 26.0104 252.806 33.8363 253.477 35.2866C254.148 36.737 255.715 40.1353 256.959 42.8384C259.544 48.4516 259.461 48.3832 260.593 45.8629C261.06 44.8233 262.649 41.3976 264.123 38.2503C265.598 35.1031 266.804 32.4512 266.804 32.3572C266.804 32.2633 267.733 30.1881 268.868 27.7458C272.747 19.3967 274.196 16.2441 277.049 9.94698L279.904 3.64595L281.212 2.25972L282.521 0.873483H285.889H289.257L290.554 2.42441L291.851 3.97533V42.3135V80.6517L290.062 82.3495L288.273 84.0472H287.282C285.865 84.0472 283.454 82.6915 282.849 81.5548L282.333 80.5849V51.0332V21.4814L281.897 21.7527C281.657 21.9019 281.331 22.6772 281.172 23.4755C280.866 25.0174 279.365 28.4467 275.071 37.4195C273.612 40.4692 270.488 46.9982 268.131 51.9283L263.844 60.8921L261.966 61.6813L260.09 62.4705L258.376 62.1906L256.662 61.9107L255.649 61.007L254.636 60.1033L251.763 54.0543C241.465 32.3701 238.213 25.2854 237.73 23.482C236.759 19.8533 236.701 21.4853 236.737 51.4431L236.771 80.9623L235.633 82.0491C233.475 84.1091 231.604 84.4788 229.722 83.2174ZM306.865 83.1882C306.184 82.7158 305.341 81.9785 304.992 81.55L304.357 80.7707L304.537 78.7544L304.717 76.738L310.839 60.6074C318.882 39.4158 324.115 25.5592 328.723 13.2529L332.487 3.20066L333.735 2.03706L334.983 0.873464H338.37H341.756L343.021 2.2597L344.286 3.64593L345.915 8.18268C346.811 10.6779 347.831 13.3999 348.182 14.2317C348.532 15.0634 349.66 18.0123 350.688 20.7848C354.861 32.0375 358.955 42.8929 361.572 49.6435L362.598 52.29H363.791C364.446 52.29 366.392 51.8011 368.116 51.2036L371.248 50.1172L374.6 47.9014L377.951 45.6856L380.26 43.0648L382.57 40.444L384.298 36.9737C385.248 35.0651 386.026 33.2332 386.026 32.9029C386.026 32.5726 386.571 31.7865 387.238 31.1559L388.451 30.0095H390.352H392.253L393.648 31.5801L395.042 33.1507V34.3414C395.042 42.9612 382.591 56.0351 370.331 60.288L366.239 61.7077L366.352 62.1657C366.414 62.4176 367.828 66.2707 369.493 70.7281L372.522 78.8325L371.747 80.698L370.973 82.5634L369.268 83.3815L367.563 84.1995L366.049 83.5683C363.807 82.6339 364.113 83.2627 357.586 66.1523L356.048 62.1196L349.873 61.527C346.476 61.201 342.232 60.9208 340.441 60.9043L337.185 60.8742L333.956 61.6402C332.179 62.0615 329.249 63.1318 327.444 64.0187L324.161 65.6311L320.397 69.4202L316.633 73.2094L315.793 75.2257C315.331 76.3347 314.504 78.3135 313.956 79.623L312.958 82.0039L311.296 83.0237C309.267 84.2686 308.466 84.2985 306.865 83.1882ZM325.969 54.4143C327.239 53.8089 329.719 52.9213 331.479 52.4419L334.68 51.5704L339.94 51.5647C342.833 51.5628 346.721 51.7257 348.581 51.9289L351.962 52.2981V51.8686C351.962 51.6323 349.032 43.5768 345.45 33.9673C341.869 24.3578 338.938 16.1561 338.938 15.7413C338.938 15.3265 338.722 14.9872 338.457 14.9872H337.975L337.402 17.1295C337.088 18.3078 336.074 21.2 335.15 23.5566C334.225 25.9132 331.302 33.6257 328.653 40.6954C326.004 47.7652 323.628 53.765 323.373 54.0284C322.819 54.5995 322.746 55.9857 323.284 55.7082C323.491 55.6017 324.699 55.0197 325.969 54.4143Z" fill="url(#paint0_linear_3_4)"/>
<defs>
<linearGradient id="paint0_linear_3_4" x1="0.81064" y1="42.5051" x2="395.042" y2="42.5051" gradientUnits="userSpaceOnUse">
<stop stop-color="#013157"/>
<stop offset="1" stop-color="#25B23E"/>
</linearGradient>
</defs>
</svg>
